<svg width="513" height="411" viewBox="0 0 513 411" fill="none" xmlns="http://www.w3.org/2000/svg">
<path d="M418.8 35.1063H252.328C247.272 35.1225 242.325 33.6358 238.115 30.8348L208.428 10.9829C198.597 4.40922 187.032 0.911053 175.206 0.934196H94.1645C78.3095 0.951156 63.1086 7.25708 51.8974 18.4683C40.6862 29.6796 34.3802 44.8804 34.3633 60.7355V86.3646H478.601C478.601 53.3884 451.776 35.1063 418.8 35.1063Z" fill="#DCDCDC"/>
<path d="M435.622 411H77.3482C61.6569 410.983 46.6012 404.798 35.4281 393.781C24.2551 382.764 17.8598 367.796 17.6217 352.107L0.386095 176.184V175.885C-0.178319 168.834 0.722763 161.743 3.03264 155.057C5.34252 148.371 9.01119 142.236 13.8078 137.037C18.6044 131.838 24.4252 127.688 30.9037 124.849C37.3823 122.009 44.3785 120.541 51.4521 120.537H461.625C468.696 120.544 475.69 122.014 482.166 124.855C488.642 127.696 494.461 131.846 499.255 137.045C504.049 142.243 507.716 148.378 510.025 155.062C512.333 161.746 513.234 168.836 512.669 175.885V176.184L495.348 352.107C495.11 367.796 488.715 382.764 477.542 393.781C466.369 404.798 451.313 410.983 435.622 411Z" fill="#DCDCDC"/>
</svg>
