<svg width="19" height="18" viewBox="0 0 19 18" fill="none" xmlns="http://www.w3.org/2000/svg">
<path d="M12.0085 17.8026H11.897C8.09141 17.8026 6.25716 16.3026 5.94003 12.9427C5.90574 12.5913 6.16288 12.2741 6.52287 12.2399C6.87429 12.2056 7.19143 12.4713 7.22571 12.8227C7.47428 15.5141 8.74282 16.5169 11.9056 16.5169H12.017C15.5055 16.5169 16.7398 15.2826 16.7398 11.7941V6.20569C16.7398 2.71721 15.5055 1.48295 12.017 1.48295H11.9056C8.72568 1.48295 7.45714 2.50292 7.22571 5.24572C7.18286 5.59714 6.89143 5.86285 6.52287 5.82856C6.16288 5.80285 5.90574 5.48571 5.93146 5.13429C6.22288 1.72294 8.06569 0.197266 11.897 0.197266H12.0085C16.2169 0.197266 18.0169 1.99722 18.0169 6.20569V11.7941C18.0169 16.0026 16.2169 17.8026 12.0085 17.8026Z" fill="#686868"/>
<path d="M11.7002 9.64213H0.66042C0.309 9.64213 0.0175781 9.35071 0.0175781 8.99929C0.0175781 8.64787 0.309 8.35645 0.66042 8.35645H11.7002C12.0516 8.35645 12.343 8.64787 12.343 8.99929C12.343 9.35071 12.0601 9.64213 11.7002 9.64213Z" fill="#686868"/>
<path d="M9.78914 12.5146C9.62628 12.5146 9.46343 12.4546 9.33486 12.326C9.0863 12.0774 9.0863 11.666 9.33486 11.4174L11.7519 9.00035L9.33486 6.58326C9.0863 6.33469 9.0863 5.92327 9.33486 5.67471C9.58343 5.42614 9.99485 5.42614 10.2434 5.67471L13.1148 8.54607C13.3633 8.79464 13.3633 9.20606 13.1148 9.45462L10.2434 12.326C10.1148 12.4546 9.95199 12.5146 9.78914 12.5146Z" fill="#686868"/>
</svg>
