<svg width="19" height="19" viewBox="0 0 19 19" fill="none" xmlns="http://www.w3.org/2000/svg">
<path d="M12.1199 18.5818L12.0085 18.5814C8.20291 18.5667 6.37449 17.0596 6.07036 13.6985C6.03744 13.3469 6.2958 13.0308 6.65592 12.9979C7.00747 12.965 7.32358 13.2319 7.3565 13.5835C7.59464 16.2758 8.85929 17.2835 12.0221 17.2958L12.1335 17.2962C15.6219 17.3097 16.861 16.0802 16.8745 12.5918L16.8961 7.00337C16.9096 3.5149 15.6802 2.27588 12.1917 2.26237L12.0803 2.26194C8.90036 2.24963 7.62788 3.26468 7.38584 6.00656C7.34163 6.35781 7.04918 6.62239 6.68075 6.58667C6.32086 6.55957 6.06495 6.24144 6.09203 5.89012C6.39666 2.47993 8.24536 0.961396 12.0767 0.976232L12.1881 0.976663C16.3965 0.992959 18.1895 2.79987 18.1732 7.00831L18.1516 12.5967C18.1353 16.8052 16.3284 18.5981 12.1199 18.5818Z" fill="#686868"/>
<path d="M1.76585 9.09975L12.8055 9.1425C13.1569 9.14386 13.4472 9.43641 13.4458 9.78783C13.4445 10.1392 13.1519 10.4295 12.8005 10.4282L1.76087 10.3854C1.40945 10.3841 1.11916 10.0915 1.12052 9.7401C1.12188 9.38868 1.40586 9.09836 1.76585 9.09975Z" fill="#686868"/>
<path d="M3.68925 6.23497C3.8521 6.2356 4.01472 6.29623 4.14279 6.4253C4.39039 6.67482 4.3888 7.08624 4.13927 7.33384L1.71284 9.74155L4.12055 12.168C4.36815 12.4175 4.36656 12.8289 4.11703 13.0765C3.86751 13.3241 3.45609 13.3225 3.20849 13.073L0.34827 10.1905C0.100668 9.94102 0.102262 9.5296 0.351788 9.282L3.23425 6.42178C3.36331 6.29371 3.5264 6.23434 3.68925 6.23497Z" fill="#686868"/>
</svg>
