<svg width="31" height="31" viewBox="0 0 31 31" fill="none" xmlns="http://www.w3.org/2000/svg">
<path d="M15.7012 30.6855C12.7345 30.6855 9.83437 29.8058 7.36763 28.1576C4.90089 26.5093 2.9783 24.1667 1.84298 21.4258C0.70767 18.6849 0.410621 15.6689 0.989401 12.7592C1.56818 9.84946 2.9968 7.17672 5.09459 5.07894C7.90763 2.2659 11.7229 0.685547 15.7012 0.685547C19.6794 0.685547 23.4947 2.2659 26.3078 5.07894C29.1208 7.89199 30.7012 11.7073 30.7012 15.6855C30.7012 19.6638 29.1208 23.4791 26.3078 26.2921C24.9181 27.6894 23.2652 28.7971 21.4445 29.5512C19.6239 30.3054 17.6718 30.6909 15.7012 30.6855ZM15.7012 2.68557C8.53302 2.68557 2.70122 8.51737 2.70122 15.6855C2.70122 22.8537 8.53302 28.6855 15.7012 28.6855C22.8693 28.6855 28.7011 22.8537 28.7011 15.6855C28.7011 8.51737 22.8693 2.68557 15.7012 2.68557Z" fill="#858585"/>
<path d="M13.9083 23.3926L12.4941 21.9785L18.7869 15.6856L12.4941 9.39264L13.9083 7.97852L21.6154 15.6856L13.9083 23.3926Z" fill="#858585"/>
</svg>
