<svg width="25" height="25" viewBox="0 0 25 25" fill="none" xmlns="http://www.w3.org/2000/svg">
<path d="M21.0479 20.0283L17.6479 16.6383C18.7449 15.2407 19.3401 13.5149 19.3379 11.7383C19.3379 10.156 18.8687 8.60932 17.9897 7.29372C17.1106 5.97813 15.8612 4.95275 14.3994 4.34725C12.9376 3.74175 11.329 3.58332 9.77717 3.892C8.22532 4.20068 6.79986 4.96261 5.68104 6.08143C4.56222 7.20025 3.80029 8.62571 3.49161 10.1776C3.18293 11.7294 3.34136 13.3379 3.94686 14.7998C4.55236 16.2616 5.57774 17.511 6.89333 18.39C8.20893 19.2691 9.75564 19.7383 11.3379 19.7383C13.1145 19.7405 14.8403 19.1453 16.2379 18.0483L19.6279 21.4483C19.7209 21.542 19.8315 21.6164 19.9533 21.6672C20.0752 21.7179 20.2059 21.7441 20.3379 21.7441C20.4699 21.7441 20.6006 21.7179 20.7225 21.6672C20.8443 21.6164 20.9549 21.542 21.0479 21.4483C21.1416 21.3553 21.216 21.2447 21.2668 21.1229C21.3176 21.001 21.3437 20.8703 21.3437 20.7383C21.3437 20.6063 21.3176 20.4756 21.2668 20.3537C21.216 20.2318 21.1416 20.1212 21.0479 20.0283ZM5.33789 11.7383C5.33789 10.5516 5.68979 9.39156 6.34908 8.40486C7.00836 7.41817 7.94544 6.64913 9.04179 6.19501C10.1382 5.74088 11.3446 5.62206 12.5084 5.85357C13.6723 6.08508 14.7414 6.65653 15.5805 7.49564C16.4197 8.33476 16.9911 9.40386 17.2226 10.5677C17.4541 11.7316 17.3353 12.938 16.8812 14.0344C16.427 15.1307 15.658 16.0678 14.6713 16.7271C13.6846 17.3864 12.5246 17.7383 11.3379 17.7383C9.7466 17.7383 8.22047 17.1061 7.09525 15.9809C5.97004 14.8557 5.33789 13.3296 5.33789 11.7383Z" fill="#949494"/>
</svg>
