<svg width="297" height="71" viewBox="0 0 297 71" fill="none" xmlns="http://www.w3.org/2000/svg">
<path d="M5.00961 46.0022C1.37168 46.0022 0 48.4677 0 50.873C0 53.3385 0.539828 53.6273 5.00961 55.7439L27.9335 61.4288L50.8117 55.7439C54.3901 55.7439 55.8213 53.3385 55.8213 50.873C55.8213 48.4677 54.4496 46.0022 50.8117 46.0022L33.9938 49.8321V36.8619H37.1545C46.7564 36.8619 52.0045 30.0667 52.0045 22.3095C52.0045 20.265 51.4082 18.2806 50.3943 16.4766H51.1696C54.0321 16.4766 55.7617 14.2517 55.7617 11.7261C55.7617 9.20043 54.0918 7.1559 51.1696 7.1559H34.4708V6.19376C34.4708 2.28508 31.9064 0 27.9106 0C23.9149 0 21.3504 2.22495 21.3504 6.19376V7.1559H4.59213C1.66986 7.1559 0 9.20043 0 11.7261C0 14.2517 1.78914 16.4766 4.65178 16.4766H5.36743C4.35359 18.2806 3.7572 20.265 3.7572 22.3095C3.7572 30.0667 9.00537 36.8619 18.607 36.8619H21.8275V49.8321L5.00961 46.0022ZM34.113 16.2961C38.1088 16.2961 40.0769 18.8218 40.0769 22.069C40.0769 25.256 38.2281 27.8419 34.2323 27.8419H21.5294C17.5337 27.8419 15.6848 25.256 15.6848 22.069C15.6848 18.8218 17.6529 16.2961 21.6487 16.2961H34.113Z" fill="white"/>
<path d="M65.6737 46.2061C63.0331 46.4724 61.7656 48.2296 61.7656 50.4661C61.7656 53.6079 64.2478 55.1521 66.8355 55.0456C80.6721 54.3534 91.0231 48.0699 91.0231 28.9531V16.9719C91.0231 12.0196 88.6994 9.19733 82.7317 9.19733H66.8355C63.614 9.19733 62.3994 11.6468 62.3994 13.7768C62.3994 15.9601 63.6668 18.4096 66.8355 18.4096H79.3518C80.1968 18.4096 80.6721 18.9954 80.6721 19.7409V26.3971H66.3602C63.1387 26.3971 61.9241 28.7401 61.9241 30.8701C61.9241 33.0534 63.1915 35.3964 66.3602 35.3964H80.0383C78.2428 43.3839 72.856 45.4606 65.6737 46.2061ZM109.032 57.1756V12.4456C109.032 8.98433 106.55 7.17383 103.751 7.17383C100.952 7.17383 98.4695 8.98433 98.4695 12.4456V57.1756H109.032Z" fill="white"/>
<path d="M119.487 28.8974C116.265 28.8974 115.051 31.0275 115.051 33.1575C115.051 35.3407 116.318 37.4174 119.487 37.4174H133.165V46.5765H118.272C115.051 46.5765 113.836 48.7597 113.836 50.8897C113.836 53.073 115.103 55.203 118.272 55.203H158.831C161.999 55.203 163.267 53.073 163.267 50.8897C163.267 48.7597 162.052 46.5765 158.831 46.5765H143.938V37.4174H157.616C160.785 37.4174 162.052 35.3407 162.052 33.1575C162.052 31.0275 160.838 28.8974 157.616 28.8974H154.025V24.318C154.025 20.5905 151.965 18.8865 148.691 18.8865C145.364 18.8865 143.252 20.5372 143.252 24.318V28.8974H133.851V24.318C133.851 20.5905 131.792 18.8865 128.517 18.8865C125.19 18.8865 123.078 20.5372 123.078 24.318V28.8974H119.487ZM120.12 8.02344C116.899 8.02344 115.684 10.3664 115.684 12.4964C115.684 14.6797 116.952 16.9695 120.12 16.9695H156.982C160.151 16.9695 161.419 14.6797 161.419 12.4964C161.419 10.3664 160.204 8.02344 156.982 8.02344H120.12Z" fill="white"/>
<path d="M169.605 47.1104C166.965 47.3766 165.697 49.1339 165.697 51.3704C165.697 54.5121 168.179 56.0564 170.767 55.9499C184.604 55.2576 194.955 48.9741 194.955 29.8574V17.8761C194.955 12.9239 192.631 10.1016 186.663 10.1016H170.767C167.546 10.1016 166.331 12.5511 166.331 14.6811C166.331 16.8644 167.598 19.3139 170.767 19.3139H183.283C184.128 19.3139 184.604 19.8996 184.604 20.6451V27.3014H170.292C167.07 27.3014 165.856 29.6444 165.856 31.7744C165.856 33.9576 167.123 36.3006 170.292 36.3006H183.97C182.174 44.2881 176.788 46.3649 169.605 47.1104ZM212.963 58.0799V13.3499C212.963 9.88861 210.481 8.07812 207.682 8.07812C204.883 8.07812 202.401 9.88861 202.401 13.3499V58.0799H212.963Z" fill="white"/>
<path d="M242.094 48.9458C242.856 48.9458 243.546 48.8127 244.162 48.5464C244.778 48.2802 245.292 47.8512 245.702 47.2595C246.142 46.6679 246.48 45.8839 246.715 44.9077C246.949 43.9018 247.067 42.6741 247.067 41.2245C247.067 39.6862 246.979 38.3993 246.803 37.3639C246.627 36.2989 246.319 35.441 245.878 34.7902C245.468 34.1097 244.881 33.6216 244.118 33.3258C243.385 33.0299 242.446 32.882 241.301 32.882C240.421 32.882 239.614 32.9856 238.881 33.1927C238.147 33.3997 237.561 33.6808 237.121 34.0358V48.3245C237.971 48.5612 238.793 48.7239 239.585 48.8127C240.407 48.9014 241.243 48.9458 242.094 48.9458ZM237.121 54.7145C237.121 55.1583 237.033 55.4541 236.856 55.602C236.68 55.7499 236.387 55.8239 235.976 55.8239H230.607C230.196 55.8239 229.903 55.7499 229.727 55.602C229.551 55.4541 229.463 55.1583 229.463 54.7145V16.0195C229.463 15.5758 229.551 15.2799 229.727 15.132C229.903 14.9841 230.196 14.9102 230.607 14.9102H235.976C236.387 14.9102 236.68 14.9841 236.856 15.132C237.033 15.2799 237.121 15.5758 237.121 16.0195V27.2464C237.854 26.8914 238.646 26.5808 239.497 26.3145C240.377 26.0187 241.521 25.8708 242.93 25.8708C244.808 25.8708 246.48 26.0927 247.947 26.5364C249.443 26.9802 250.69 27.7789 251.688 28.9327C252.715 30.0864 253.492 31.6543 254.02 33.6364C254.578 35.6185 254.856 38.1479 254.856 41.2245C254.856 44.0054 254.622 46.3424 254.152 48.2358C253.683 50.1291 252.979 51.6527 252.04 52.8064C251.13 53.9602 249.957 54.7885 248.519 55.2914C247.111 55.7943 245.468 56.0458 243.59 56.0458C242.475 56.0458 241.331 55.9127 240.157 55.6464C238.984 55.4097 237.971 55.0252 237.121 54.4927V54.7145ZM262.105 55.9127C261.694 55.9127 261.401 55.8387 261.225 55.6908C261.048 55.5429 260.96 55.247 260.96 54.8033V28.7995C260.96 28.3558 261.048 28.0599 261.225 27.912C261.401 27.7641 261.694 27.6902 262.105 27.6902H267.694C268.105 27.6902 268.398 27.7641 268.574 27.912C268.75 28.0599 268.838 28.3558 268.838 28.7995V54.8033C268.838 55.247 268.75 55.5429 268.574 55.6908C268.398 55.8387 268.105 55.9127 267.694 55.9127H262.105ZM262.105 23.9627C261.694 23.9627 261.401 23.8887 261.225 23.7408C261.048 23.5929 260.96 23.297 260.96 22.8533V17.1733C260.96 16.7295 261.048 16.4337 261.225 16.2858C261.401 16.1379 261.694 16.0639 262.105 16.0639H267.694C268.105 16.0639 268.398 16.1379 268.574 16.2858C268.75 16.4337 268.838 16.7295 268.838 17.1733V22.8533C268.838 23.297 268.75 23.5929 268.574 23.7408C268.398 23.8887 268.105 23.9627 267.694 23.9627H262.105ZM276.877 55.8683C276.29 55.8683 275.909 55.7647 275.733 55.5577C275.557 55.3506 275.469 54.9808 275.469 54.4483V50.1883C275.469 49.3304 275.704 48.6056 276.173 48.0139L287.483 33.9914H276.613C276.202 33.9914 275.909 33.9174 275.733 33.7695C275.557 33.6216 275.469 33.3258 275.469 32.882V28.1339C275.469 27.6902 275.557 27.3943 275.733 27.2464C275.909 27.0985 276.202 27.0245 276.613 27.0245H295.273C295.801 27.0245 296.168 27.0985 296.373 27.2464C296.579 27.3943 296.681 27.7789 296.681 28.4002V32.9708C296.681 33.4737 296.608 33.8583 296.461 34.1245C296.344 34.3612 296.168 34.6274 295.933 34.9233L284.667 48.9014H295.537C295.948 48.9014 296.241 48.9754 296.417 49.1233C296.593 49.2712 296.681 49.567 296.681 50.0108V54.7589C296.681 55.2027 296.593 55.4985 296.417 55.6464C296.241 55.7943 295.948 55.8683 295.537 55.8683H276.877Z" fill="white"/>
</svg>
