<svg width="213" height="62" viewBox="0 0 213 62" fill="none" xmlns="http://www.w3.org/2000/svg">
<path d="M5.00961 46.0022C1.37168 46.0022 0 48.4677 0 50.873C0 53.3385 0.539828 53.6273 5.00961 55.7439L27.9335 61.4288L50.8117 55.7439C54.3901 55.7439 55.8213 53.3385 55.8213 50.873C55.8213 48.4677 54.4496 46.0022 50.8117 46.0022L33.9938 49.8321V36.8619H37.1545C46.7564 36.8619 52.0045 30.0667 52.0045 22.3095C52.0045 20.265 51.4082 18.2806 50.3943 16.4766H51.1696C54.0321 16.4766 55.7617 14.2517 55.7617 11.7261C55.7617 9.20043 54.0918 7.1559 51.1696 7.1559H34.4708V6.19376C34.4708 2.28508 31.9064 0 27.9106 0C23.9149 0 21.3504 2.22495 21.3504 6.19376V7.1559H4.59213C1.66986 7.1559 0 9.20043 0 11.7261C0 14.2517 1.78914 16.4766 4.65178 16.4766H5.36743C4.35359 18.2806 3.7572 20.265 3.7572 22.3095C3.7572 30.0667 9.00537 36.8619 18.607 36.8619H21.8275V49.8321L5.00961 46.0022ZM34.113 16.2961C38.1088 16.2961 40.0769 18.8218 40.0769 22.069C40.0769 25.256 38.2281 27.8419 34.2323 27.8419H21.5294C17.5337 27.8419 15.6848 25.256 15.6848 22.069C15.6848 18.8218 17.6529 16.2961 21.6487 16.2961H34.113Z" fill="#D9D9D9"/>
<path d="M65.6737 46.2061C63.0331 46.4724 61.7656 48.2296 61.7656 50.4661C61.7656 53.6079 64.2478 55.1521 66.8355 55.0456C80.6721 54.3534 91.0231 48.0699 91.0231 28.9531V16.9719C91.0231 12.0196 88.6994 9.19733 82.7317 9.19733H66.8355C63.614 9.19733 62.3994 11.6468 62.3994 13.7768C62.3994 15.9601 63.6668 18.4096 66.8355 18.4096H79.3518C80.1968 18.4096 80.6721 18.9954 80.6721 19.7409V26.3971H66.3602C63.1387 26.3971 61.9241 28.7401 61.9241 30.8701C61.9241 33.0534 63.1915 35.3964 66.3602 35.3964H80.0383C78.2428 43.3839 72.856 45.4606 65.6737 46.2061ZM109.032 57.1756V12.4456C109.032 8.98433 106.55 7.17383 103.751 7.17383C100.952 7.17383 98.4695 8.98433 98.4695 12.4456V57.1756H109.032Z" fill="#D9D9D9"/>
<path d="M119.487 28.8975C116.265 28.8975 115.051 31.0275 115.051 33.1575C115.051 35.3407 116.318 37.4175 119.487 37.4175H133.165V46.5765H118.272C115.051 46.5765 113.836 48.7597 113.836 50.8897C113.836 53.073 115.103 55.203 118.272 55.203H158.831C161.999 55.203 163.267 53.073 163.267 50.8897C163.267 48.7597 162.052 46.5765 158.831 46.5765H143.938V37.4175H157.616C160.785 37.4175 162.052 35.3407 162.052 33.1575C162.052 31.0275 160.838 28.8975 157.616 28.8975H154.025V24.318C154.025 20.5905 151.965 18.8865 148.691 18.8865C145.364 18.8865 143.252 20.5372 143.252 24.318V28.8975H133.851V24.318C133.851 20.5905 131.792 18.8865 128.517 18.8865C125.19 18.8865 123.078 20.5372 123.078 24.318V28.8975H119.487ZM120.12 8.02344C116.899 8.02344 115.684 10.3664 115.684 12.4964C115.684 14.6797 116.952 16.9695 120.12 16.9695H156.982C160.151 16.9695 161.419 14.6797 161.419 12.4964C161.419 10.3664 160.204 8.02344 156.982 8.02344H120.12Z" fill="#D9D9D9"/>
<path d="M169.605 47.1104C166.965 47.3766 165.697 49.1339 165.697 51.3704C165.697 54.5121 168.179 56.0564 170.767 55.9499C184.604 55.2576 194.955 48.9741 194.955 29.8574V17.8761C194.955 12.9239 192.631 10.1016 186.663 10.1016H170.767C167.546 10.1016 166.331 12.5511 166.331 14.6811C166.331 16.8644 167.598 19.3139 170.767 19.3139H183.283C184.128 19.3139 184.604 19.8996 184.604 20.6451V27.3014H170.292C167.07 27.3014 165.856 29.6444 165.856 31.7744C165.856 33.9576 167.123 36.3006 170.292 36.3006H183.97C182.174 44.2881 176.788 46.3649 169.605 47.1104ZM212.963 58.0799V13.3499C212.963 9.88861 210.481 8.07812 207.682 8.07812C204.883 8.07812 202.401 9.88861 202.401 13.3499V58.0799H212.963Z" fill="#D9D9D9"/>
</svg>
