<svg width="14" height="14" viewBox="0 0 14 14" fill="none" xmlns="http://www.w3.org/2000/svg">
<path d="M4.375 4.4847C4.375 4.4847 4.41437 3.58235 5.29211 2.85884C5.81328 2.42927 6.43918 2.30485 7 2.2972C7.51215 2.29091 7.96988 2.37759 8.24359 2.51102C8.71145 2.74016 9.625 3.29798 9.625 4.4847C9.625 5.73348 8.82711 6.2995 7.92012 6.92321C7.01312 7.54692 6.78125 8.1586 6.78125 8.8597" stroke="#B8B8B8" stroke-width="1.5" stroke-miterlimit="10" stroke-linecap="round"/>
<path d="M6.80078 12.0625C7.35307 12.0625 7.80078 11.6148 7.80078 11.0625C7.80078 10.5102 7.35307 10.0625 6.80078 10.0625C6.2485 10.0625 5.80078 10.5102 5.80078 11.0625C5.80078 11.6148 6.2485 12.0625 6.80078 12.0625Z" fill="#B8B8B8"/>
</svg>
